<svg viewBox="0 0 160 52" fill="none" xmlns="http://www.w3.org/2000/svg"><path d="M112.996 35.66c-4.622 0-7.494-2.765-7.494-7.22 0-4.625 2.65-7.502 6.918-7.502h.358c.535 0 1.272.018 2.279.148v-5.582h3.015v19.653s-2.865.503-5.076.503zm-.027-12.271c-2.92 0-4.34 1.627-4.34 4.973 0 3.004 1.713 4.871 4.466 4.871.529 0 1.135-.036 1.961-.109V23.59c-.825-.137-1.49-.2-2.087-.2zm-41.266 11.82l-8.144-14.672-.003 14.672h-2.838V16.634h3.974l8.143 14.542-.003-14.542h2.875V35.21h-4.004zm25.939.286c-1.371 0-2.8-.159-4.503-.497l-.184-.036v-2.595l.269.06c1.501.33 2.797.613 4.094.613 1.047 0 3.486-.17 3.486-1.761 0-1.335-1.685-1.67-3.039-1.938l-.085-.018a11.4 11.4 0 01-.693-.15c-1.986-.532-4.105-1.332-4.105-4.08 0-2.68 2.054-4.215 5.637-4.215 1.719 0 2.967.19 3.971.345l.487.074v2.518l-.259-.049c-1.136-.215-2.467-.437-3.746-.437-1.423 0-3.11.275-3.11 1.581 0 1.085 1.38 1.395 2.98 1.755 2.238.5 5.012 1.127 5.012 4.28 0 2.89-2.262 4.55-6.212 4.55zm28.893 0c-3.12 0-6.01-.568-6.01-4.682 0-4.476 4.469-4.476 7.14-4.476.266 0 1.521.06 1.906.077-.003-2.51-.034-3.11-3.561-3.11-1.398 0-2.951.286-4.322.54l-.262.048v-2.479l.177-.039a22.544 22.544 0 014.684-.496c3.418 0 6.314.355 6.314 4.734v9.548l-.208.025c-2.367.274-4.247.31-5.857.31h-.001zm1.055-6.943c-2.576 0-4.173.391-4.173 2.339 0 2.254 2.037 2.44 3.948 2.44.712 0 1.995-.094 2.387-.123V28.63a141.63 141.63 0 00-2.162-.078zm-43.355 6.943c-3.124 0-6.013-.568-6.013-4.682 0-4.476 4.468-4.476 7.139-4.476.266 0 1.525.06 1.91.077-.003-2.51-.037-3.11-3.564-3.11-1.4 0-2.952.286-4.323.54l-.262.048v-2.479l.18-.039a22.481 22.481 0 014.682-.496c3.417 0 6.314.355 6.314 4.734v9.548l-.21.025c-2.366.274-4.246.31-5.853.31zm1.05-6.943c-2.575 0-4.167.391-4.167 2.339 0 2.254 2.032 2.44 3.943 2.44.716 0 2-.094 2.391-.123V28.63c-.556-.025-1.992-.078-2.165-.078" fill="#A9AEB9"/><mask id="a" maskUnits="userSpaceOnUse" x="134" y="20" width="14" height="22"><path d="M134.569 20.036h13.123v21.64h-13.123v-21.64z" fill="#fff"/></mask><g mask="url(#a)"><path d="M144.605 41.52v-6.093c-1.176.17-1.801.17-2.306.17-1.194 0-2.521-.268-3.548-.715-2.299-.988-3.67-3.494-3.67-6.71 0-1.605.379-4.54 2.913-6.122 1.273-.784 2.774-1.12 5.032-1.12.808 0 1.899.064 2.954.127l1.712.092v18.96l-3.087 1.411zm-1.804-18.138c-3.064 0-4.616 1.613-4.616 4.79 0 4.09 2.315 4.949 4.263 4.949.474 0 1.007 0 2.187-.155V23.47c-.924-.064-1.351-.089-1.835-.089h.001z" fill="#A9AEB9"/></g><mask id="b" maskUnits="userSpaceOnUse" x="35" y="5" width="24" height="31"><path d="M35.013 5.625h23.58v29.739h-23.58V5.624z" fill="#fff"/></mask><g mask="url(#b)"><path d="M47.25 5.625l-9.971 28.284a1.972 1.972 0 01-.623.881 1.88 1.88 0 01-.98.405v.014h10.54c.825 0 1.532-.542 1.794-1.3l9.975-28.284H47.25z" fill="#A9AEB9"/></g><path d="M34.815 34.78c.612 0 1.147-.314 1.474-.79.034-.049.154-.222.239-.457l3.657-10.38-2.14-6.062a1.86 1.86 0 00-.584-.773 1.757 1.757 0 00-1.822-.208 1.82 1.82 0 00-.735.623c-.035.05-.177.27-.238.458l-3.657 10.376 2.149 6.086c.14.334.37.62.665.82.295.2.64.306.992.307z" fill="#A9AEB9"/><mask id="c" maskUnits="userSpaceOnUse" x="12" y="14" width="24" height="32"><path d="M12.308 14.626h23.579V45.1h-23.58V14.626z" fill="#fff"/></mask><g mask="url(#c)"><path d="M35.597 15.514H24.94c-.826 0-1.532.54-1.798 1.3L13.17 45.098h10.736l9.972-28.283c.13-.368.362-.688.668-.919a1.871 1.871 0 011.05-.379v-.003z" fill="#A9AEB9"/></g></svg>